<svg xmlns="http://www.w3.org/2000/svg" version="1.1" viewBox="148.75 122.5 402.51 315.01">
 <path d="m186.47 122.5c-20.742 0-37.719 16.977-37.719 37.719v239.57c0 20.742 16.977 37.719 37.719 37.719h327.07c20.742 0 37.719-16.977 37.719-37.719l-0.003906-239.57c0-20.742-16.977-37.719-37.719-37.719zm0 17.5h327.07c11.348 0 20.219 8.8672 20.219 20.219v239.57c0 11.348-8.8672 20.219-20.219 20.219l-327.07-0.003906c-11.348 0-20.219-8.8672-20.219-20.219v-239.56c0-11.348 8.8672-20.219 20.219-20.219zm21.723 14.645h-0.003906c-4.832 0-8.75 3.918-8.75 8.75v35c0 4.832 3.918 8.75 8.75 8.75h35c4.832 0 8.75-3.918 8.75-8.75v-35c0-4.832-3.918-8.75-8.75-8.75zm70.633 0h-0.003907c-4.832 0-8.75 3.918-8.75 8.75v35c0 4.832 3.918 8.75 8.75 8.75h35c4.832 0 8.75-3.918 8.75-8.75v-35c0-4.832-3.918-8.75-8.75-8.75zm-61.883 17.5h17.5v17.5h-17.5zm70.633 0h17.5v17.5h-17.5zm116.09 49.391c-2.8828 0.011719-5.5742 1.4453-7.1953 3.8281l-105 150.27c-1.3789 1.9023-1.9336 4.2734-1.543 6.5859 0.38672 2.3164 1.6914 4.375 3.6133 5.7188 1.9219 1.3438 4.3008 1.8633 6.6094 1.4336 2.3047-0.42578 4.3438-1.7617 5.6562-3.7031l105-150.27c1.9219-2.6719 2.1836-6.1914 0.67578-9.1172-1.5078-2.9258-4.5273-4.7578-7.8164-4.7422zm-129.39 20.68h-0.003906c-1.9688 0.015625-3.8789 0.69531-5.4141 1.9297l-65.285 50.773c-2.1367 1.6602-3.3867 4.2109-3.3867 6.9141s1.25 5.2539 3.3867 6.9141l70 54.398v-0.003906c3.8203 2.9492 9.3047 2.2539 12.266-1.5547 2.9609-3.8086 2.2812-9.2969-1.5156-12.27l-61.113-47.492 56.379-43.871c3.0117-2.2695 4.2305-6.2148 3.0234-9.7891-1.207-3.5703-4.5664-5.9688-8.3398-5.9492zm151.18 0c-3.7227 0.09375-6.9766 2.5312-8.1133 6.0781-1.1367 3.5469 0.097656 7.4219 3.0703 9.6602l56.465 43.871-61.113 47.492c-1.8438 1.4219-3.043 3.5195-3.3359 5.8281-0.29297 2.3086 0.34375 4.6406 1.7734 6.4766 1.4297 1.8398 3.5312 3.0312 5.8398 3.3164 2.3125 0.28516 4.6406-0.35938 6.4727-1.7969l70-54.398v0.003906c2.1367-1.6602 3.3867-4.2109 3.3867-6.9141s-1.25-5.2539-3.3867-6.9141l-65.367-50.789h-0.003906c-1.6094-1.2891-3.625-1.9688-5.6875-1.9141z"/>
</svg>